<svg xmlns="http://www.w3.org/2000/svg" viewBox="0 0 100 100">
    <path
        d="m78.96 27.986-1.674-5.042a4.996 4.996 0 0 0-4.646-3.406l-1.237-3.724C66.402.747 48.031-4.884 35.445 4.792l-15.067 11.58C8.942 25.164 6.44 41.394 14.696 53.222l26.206 37.53a21.817 21.817 0 0 0 24.614 8.165l9.576-3.18c11.357-3.784 17.506-16.048 13.747-27.414l-.623-1.875a4.996 4.996 0 0 0 1.686-5.509l-1.674-5.04a4.996 4.996 0 0 0 1.687-5.51l-6.308-18.997a4.996 4.996 0 0 0-4.647-3.406zm-9.729 34.22 1.674 5.041a4.996 4.996 0 0 0 4.646 3.407l.623 1.875a8.35 8.35 0 0 1-5.288 10.544l-9.576 3.18a8.387 8.387 0 0 1-9.465-3.141l-26.207-37.53c-4.174-5.98-2.91-14.185 2.872-18.63l15.068-11.58c5.307-4.079 13.051-1.704 15.16 4.648l1.237 3.724a4.996 4.996 0 0 0-1.686 5.508l1.674 5.042a4.996 4.996 0 0 0-1.686 5.509L64.585 58.8a4.996 4.996 0 0 0 4.646 3.406zm-7.776-34.005a1.67 1.67 0 0 1 1.058-2.109l9.498-3.154a1.67 1.67 0 0 1 2.109 1.058l1.577 4.75-12.665 4.204zM85.68 64.1l-9.5 3.154a1.67 1.67 0 0 1-2.108-1.058l-1.577-4.75 12.665-4.205 1.577 4.75A1.67 1.67 0 0 1 85.68 64.1zm1.07-12.66a1.67 1.67 0 0 1-1.058 2.11L69.86 58.805a1.67 1.67 0 0 1-2.11-1.057L61.444 38.75a1.67 1.67 0 0 1 1.057-2.109l15.832-5.256a1.67 1.67 0 0 1 2.108 1.057z"
        fill="#08c770"
    />
</svg>
