<?xml version="1.0" encoding="UTF-8" standalone="no"?>
<!-- Created with Inkscape (http://www.inkscape.org/) -->

<svg
   width="217.75308mm"
   height="271.07602mm"
   viewBox="0 0 217.75308 271.07602"
   fill="#08c770"
   version="1.1"
   id="svg1"
   xml:space="preserve"
   xmlns="http://www.w3.org/2000/svg"
   xmlns:svg="http://www.w3.org/2000/svg"><defs
     id="defs1" /><g
     id="layer1"
     transform="translate(-376.91044,-336.24654)"><rect
       style="display:inline;fill:none;fill-opacity:1;fill-rule:nonzero;stroke:none;stroke-width:1.2;stroke-dasharray:none;stroke-opacity:1"
       id="rect3-3-9-5"
       width="270.93332"
       height="270.93332"
       x="350.32031"
       y="336.31787"
       ry="0" /><path
       d="m 564.29111,412.10888 -4.53751,-13.66546 c -1.82225,-5.43256 -6.86617,-9.13032 -12.59518,-9.23385 l -3.3519,-10.09486 C 530.24785,338.27141 480.4487,323.007 446.33091,349.2365 l -40.84296,31.39047 c -30.99906,23.83445 -37.78258,67.82847 -15.40293,99.89357 l 71.03832,101.73093 c 14.96606,21.23133 42.0342,30.21157 66.72317,22.13643 l 25.95816,-8.61949 c 30.78566,-10.26064 47.45608,-43.505 37.26479,-74.31368 l -1.68752,-5.08228 c 4.52934,-3.5097 6.3597,-9.49001 4.5707,-14.93356 l -4.53751,-13.66552 c 4.52923,-3.5096 6.35953,-9.48985 4.57066,-14.9333 l -17.0994,-51.49767 c -1.82234,-5.4324 -6.86628,-9.13007 -12.59528,-9.23352 z m -26.37367,92.76415 4.5375,13.66527 c 1.82228,5.43248 6.86621,9.13029 12.59518,9.23371 l 1.68756,5.08224 c 3.91908,11.84953 -2.49241,24.63538 -14.33273,28.58228 l -25.95812,8.61926 c -9.49411,3.10748 -19.9045,-0.34639 -25.65849,-8.51236 L 419.74879,459.80929 c -11.31577,-16.20984 -7.88721,-38.45204 7.78481,-50.5016 L 468.37749,377.916 c 14.38578,-11.05573 35.37942,-4.61971 41.0972,12.59896 l 3.352,10.09488 c -4.52904,3.50954 -6.35953,9.48963 -4.57082,14.93301 l 4.53754,13.66539 c -4.5294,3.50965 -6.35982,9.49018 -4.57074,14.93373 l 17.09955,51.49748 c 1.82231,5.43249 6.86614,9.13015 12.59522,9.23358 z m -21.07849,-92.1801 c -0.78468,-2.37003 0.49792,-4.92778 2.8665,-5.71661 l 25.74877,-8.54961 c 2.36997,-0.78458 4.92759,0.49803 5.71645,2.86647 l 4.27487,12.87444 -34.3318,11.39964 z m 65.66424,97.31243 -25.74893,8.54954 c -2.36992,0.78465 -4.9276,-0.49812 -5.71653,-2.86637 l -4.27478,-12.87422 34.33188,-11.39995 4.27482,12.87432 c 0.78475,2.37004 -0.49796,4.92785 -2.86646,5.71668 z m 2.89971,-34.31514 c 0.78446,2.36984 -0.49789,4.92742 -2.86656,5.71623 l -42.91478,14.25 c -2.36991,0.78461 -4.92769,-0.49812 -5.71635,-2.86676 l -17.09955,-51.4977 c -0.78455,-2.36998 0.49796,-4.92772 2.86654,-5.71659 l 42.91471,-14.24922 c 2.37004,-0.78463 4.92782,0.49802 5.71656,2.8665 z"
       id="path1-8-9-2-5-7-8-1-7-79-9-1-0-9-7"
       style="display:inline;fill-opacity:1;stroke:none;stroke-width:0.265001;stroke-dasharray:none;stroke-opacity:1" /></g></svg>
